<mxfile host="app.diagrams.net" modified="2024-05-29T15:03:53.208Z" agent="Mozilla/5.0 (Windows NT 10.0; Win64; x64) AppleWebKit/537.36 (KHTML, like Gecko) Chrome/125.0.0.0 Safari/537.36" version="24.4.8" etag="Ly3zo1DT6E-4Vg36RuPr" type="github">
  <diagram name="PÃ¡gina-1" id="Z2AKSRMZC0RKfe1WrJgy">
    <mxGraphModel>
      <root>
        <mxCell id="0" />
        <mxCell id="1" parent="0" />
      </root>
    </mxGraphModel>
  </diagram>
</mxfile>
